<?xml version="1.0" standalone="no"?><?xml-stylesheet type="text/css" href="https://wps.processon.com/themes/default/wps/mind/icons/icons.css" ?><!DOCTYPE svg PUBLIC "-//W3C//DTD SVG 1.1//EN" "http://www.w3.org/Graphics/SVG/1.1/DTD/svg11.dtd"><svg xmlns="http://www.w3.org/2000/svg" xmlns:xlink="http://www.w3.org/1999/xlink" version="1.1" width="510.79998779296875" height="311" style="outline: none; display: block; background: none; top: 0px; left: 0px; font-family: &quot;PingFang SC&quot;, &quot;Apple System&quot;, &quot;SF Pro SC&quot;, &quot;SF Pro Display&quot;, &quot;Helvetica Neue&quot;, Arial, &quot;Hiragino Sans GB&quot;, STHeiti, &quot;Microsoft YaHei&quot;, &quot;Microsoft JhengHei&quot;, &quot;Source Han Sans SC&quot;, &quot;Noto Sans CJK SC&quot;, &quot;Source Han Sans CN&quot;, sans-serif; z-index: 1; font-size: 12px;" id="mind-svg-con"><defs></defs><g id="svgbackgroundid"><defs></defs><rect width="510.79998779296875" height="311" fill="#ffffff"></rect></g><g id="export-watermark"><defs><pattern patternUnits="userSpaceOnUse" id="pattern_mark_0" width="300" height="300"><text x="150" y="100" fill="rgba(0,0,0,0.1)" font-size="18" transform="rotate(-45, 150, 150)" style="dominant-baseline: middle; text-anchor: middle;"></text></pattern></defs><rect fill="url(#pattern_mark_0)" x="0" y="0" width="510.792" height="311" id="rect_mark_0" pointer-events="none"></rect></g><g class="po-mind-container" transform="matrix(1,0,0,1,229,52.5)"><g class="po-mind-cell-container"></g><g class="po-mind-line-container"><g stroke-dasharray="none" stroke-width="3" stroke="#f88a35" fill="none" from="root" to="41eb6d2b-fa76-44b3-b417-9957fa128d34" opacity="1"><path d="M 0 27.5 L 0 43.5 L -117.20000000000002 43.5 C -117.20000000000002 43.5 -125.20000000000002 43.5 -125.20000000000002 51.5 L -125.20000000000002 67.5"></path></g><g stroke-dasharray="none" stroke-width="3" stroke="#fcb52a" fill="none" from="root" to="3cb306a8-dfd8-4023-a85a-5a758f4dfb7b" opacity="1"><path d="M 0 27.5 L 0 43.5 L 117.19999999999996 43.5 C 117.19999999999996 43.5 125.19999999999996 43.5 125.19999999999996 51.5 L 125.19999999999996 67.5"></path></g><g stroke-dasharray="none" stroke-width="2" stroke="#f88a35" fill="none" from="41eb6d2b-fa76-44b3-b417-9957fa128d34" to="d199c8ab-c540-4796-9185-87c9bee42b14" opacity="1"><path d="M -125.20000000000002 110.5 L -125.20000000000002 122.5 L -125.2 122.5 C -125.2 122.5 -125.2 122.5 -125.2 122.5 L -125.2 134.5"></path></g><g stroke-dasharray="none" stroke-width="2" stroke="#fcb52a" fill="none" from="3cb306a8-dfd8-4023-a85a-5a758f4dfb7b" to="022527fe-b88e-4682-bb77-b0b773f0349b" opacity="1"><path d="M 125.19999999999996 110.5 L 125.19999999999996 122.5 L 59.89999999999999 122.5 C 59.89999999999999 122.5 55.89999999999999 122.5 55.89999999999999 126.5 L 55.89999999999999 134.5"></path></g><g stroke-dasharray="none" stroke-width="2" stroke="#fcb52a" fill="none" from="3cb306a8-dfd8-4023-a85a-5a758f4dfb7b" to="464df00a-6d92-4d47-8cb5-f18e46f11ad8" opacity="1"><path d="M 125.19999999999996 110.5 L 125.19999999999996 122.5 L 190.49999999999997 122.5 C 190.49999999999997 122.5 194.49999999999997 122.5 194.49999999999997 126.5 L 194.49999999999997 134.5"></path></g><g stroke-dasharray="none" stroke-width="2" stroke="#fcb52a" fill="none" from="022527fe-b88e-4682-bb77-b0b773f0349b" to="cc264f9e-925a-49b5-8ec9-215fb7f2b0f0" opacity="1"><path d="M 55.89999999999999 173.5 L 55.89999999999999 185.5 L 55.89999999999999 185.5 C 55.89999999999999 185.5 55.89999999999999 185.5 55.89999999999999 185.5 L 55.89999999999999 197.5"></path></g><g stroke-dasharray="none" stroke-width="2" stroke="#fcb52a" fill="none" from="464df00a-6d92-4d47-8cb5-f18e46f11ad8" to="7664cd29-c8ad-45d8-bafa-04a47f47b249" opacity="1"><path d="M 194.49999999999997 173.5 L 194.49999999999997 185.5 L 194.5 185.5 C 194.5 185.5 194.5 185.5 194.5 185.5 L 194.5 197.5"></path></g></g><g class="po-mind-generalize-container"></g><g class="po-mind-associative-line-container"></g><g class="po-mind-node-container"><g data-renderindex="0" class="po-mind-topic" id="topic-root" transform="matrix(1,0,0,1,-76.6,-27.5)" opacity="1"><path d="M10 0 L143.2 0 C143.2 0 153.2 0 153.2 10 L153.2 45 C153.2 45 153.2 55 143.2 55       L10 55 C10 55 0 55 0 45 L0 10 C0 10 0 0 10 0Z" class="po-mind-topic-shape-fill" transform="matrix(1,0,0,1,1,2)" fill="rgba(0, 0, 0, 0.1)" stroke-width="4" stroke="rgba(0, 0, 0, 0.1)"></path><path d="M10 0 L143.2 0 C143.2 0 153.2 0 153.2 10 L153.2 45 C153.2 45 153.2 55 143.2 55       L10 55 C10 55 0 55 0 45 L0 10 C0 10 0 0 10 0Z" class="po-mind-topic-shape-fill" transform="matrix(1,0,0,1,0,0)" fill="#ffffff" stroke-width="0"></path><path d="M10 0 L143.2 0 C143.2 0 153.2 0 153.2 10 L153.2 45 C153.2 45 153.2 55 143.2 55       L10 55 C10 55 0 55 0 45 L0 10 C0 10 0 0 10 0Z" class="po-mind-topic-shape" transform="matrix(1,0,0,1,0,0)" fill="none" stroke-linecap="round" stroke-width="0" stroke="#ffffff"></path><g transform="matrix(1,0,0,1,28,14)"><g data-width="97.2" data-height="27" data-offsetx="0" transform="matrix(1,0,0,1,0,0)"><g><text text-anchor="middle" align="top" anchor="middle" font-size="22px" font-weight="normal" fill="rgb(0, 0, 0)" style="font-family: Impact;font-size: 22px;font-weight: normal;text-align: center;font-style: normal;max-width: 880px;overflow-wrap: break-word;word-break: break-word;text-size-adjust: 100%;color: rgb(0, 0, 0);"><tspan x="49.5" y="22"><tspan dx="0">JavaScript</tspan></tspan></text></g></g></g></g><g data-renderindex="1" class="po-mind-topic" id="topic-41eb6d2b-fa76-44b3-b417-9957fa128d34" transform="matrix(1,0,0,1,-194.3,67.5)" opacity="1"><path d="M8 0 L130.2 0 C130.2 0 138.2 0 138.2 8 L138.2 35 C138.2 35 138.2 43 130.2 43       L8 43 C8 43 0 43 0 35 L0 8 C0 8 0 0 8 0Z" class="po-mind-topic-shape-fill" transform="matrix(1,0,0,1,0,0)" fill="#f88a35"></path><path d="M8 0 L130.2 0 C130.2 0 138.2 0 138.2 8 L138.2 35 C138.2 35 138.2 43 130.2 43       L8 43 C8 43 0 43 0 35 L0 8 C0 8 0 0 8 0Z" class="po-mind-topic-shape" transform="matrix(1,0,0,1,0,0)" fill="none" stroke-linecap="round" stroke-width="0" stroke="#f88a35"></path><g transform="matrix(1,0,0,1,16,8)"><g data-width="106.2" data-height="27" data-offsetx="0" transform="matrix(1,0,0,1,0,0)"><g><text text-anchor="middle" align="top" anchor="middle" font-size="22px" font-weight="400" fill="rgb(255, 255, 255)" style="font-family: Impact;font-size: 22px;font-weight: 400;text-align: center;font-style: normal;max-width: 880px;overflow-wrap: break-word;word-break: break-word;text-size-adjust: 100%;color: rgb(255, 255, 255);"><tspan x="54" y="22"><tspan dx="0">ECMAScript</tspan></tspan></text></g></g></g><rect fill="none" width="138.2" height="18" x="0" y="43"></rect></g><g data-renderindex="2" class="po-mind-topic" id="topic-d199c8ab-c540-4796-9185-87c9bee42b14" transform="matrix(1,0,0,1,-204,134.5)" opacity="1"><path d="M6 0 L151.6 0 C151.6 0 157.6 0 157.6 6 L157.6 30 C157.6 30 157.6 36 151.6 36       L6 36 C6 36 0 36 0 30 L0 6 C0 6 0 0 6 0Z" class="po-mind-topic-shape-fill" transform="matrix(1,0,0,1,0,0)" fill="#FFFFFF33"></path><path d="M6 0 L151.6 0 C151.6 0 157.6 0 157.6 6 L157.6 30 C157.6 30 157.6 36 151.6 36       L6 36 C6 36 0 36 0 30 L0 6 C0 6 0 0 6 0Z" class="po-mind-topic-shape" transform="matrix(1,0,0,1,0,0)" fill="none" stroke-linecap="round" stroke-width="0" stroke="#FFFFFFFF"></path><g transform="matrix(1,0,0,1,5,6)"><g data-width="147.6" data-height="24" data-offsetx="0" transform="matrix(1,0,0,1,0,0)"><g><text text-anchor="middle" align="top" anchor="middle" font-size="16px" font-weight="400" fill="rgb(0, 0, 0)" style="font-family: 思源宋体;font-size: 16px;font-weight: 400;text-align: center;font-style: normal;max-width: 896px;overflow-wrap: break-word;word-break: break-word;text-size-adjust: 100%;color: rgb(0, 0, 0);"><tspan x="75" y="16"><tspan dx="0">Javascript语言基础</tspan></tspan></text></g></g></g></g><g data-renderindex="3" class="po-mind-topic" id="topic-3cb306a8-dfd8-4023-a85a-5a758f4dfb7b" transform="matrix(1,0,0,1,65.59999999999997,67.5)" opacity="1"><path d="M8 0 L111.2 0 C111.2 0 119.2 0 119.2 8 L119.2 35 C119.2 35 119.2 43 111.2 43       L8 43 C8 43 0 43 0 35 L0 8 C0 8 0 0 8 0Z" class="po-mind-topic-shape-fill" transform="matrix(1,0,0,1,0,0)" fill="#fcb52a"></path><path d="M8 0 L111.2 0 C111.2 0 119.2 0 119.2 8 L119.2 35 C119.2 35 119.2 43 111.2 43       L8 43 C8 43 0 43 0 35 L0 8 C0 8 0 0 8 0Z" class="po-mind-topic-shape" transform="matrix(1,0,0,1,0,0)" fill="none" stroke-linecap="round" stroke-width="0" stroke="#fcb52a"></path><g transform="matrix(1,0,0,1,16,8)"><g data-width="87.2" data-height="27" data-offsetx="0" transform="matrix(1,0,0,1,0,0)"><g><text text-anchor="middle" align="top" anchor="middle" font-size="22px" font-weight="400" fill="rgb(255, 255, 255)" style="font-family: Impact;font-size: 22px;font-weight: 400;text-align: center;font-style: normal;max-width: 880px;overflow-wrap: break-word;word-break: break-word;text-size-adjust: 100%;color: rgb(255, 255, 255);"><tspan x="44.5" y="22"><tspan dx="0">Web APIs</tspan></tspan></text></g></g></g><rect fill="none" width="119.2" height="18" x="0" y="43"></rect></g><g data-renderindex="4" class="po-mind-topic" id="topic-022527fe-b88e-4682-bb77-b0b773f0349b" transform="matrix(1,0,0,1,29.29999999999999,134.5)" opacity="1"><path d="M6 0 L47.2 0 C47.2 0 53.2 0 53.2 6 L53.2 33 C53.2 33 53.2 39 47.2 39       L6 39 C6 39 0 39 0 33 L0 6 C0 6 0 0 6 0Z" class="po-mind-topic-shape-fill" transform="matrix(1,0,0,1,0,0)" fill="none"></path><path d="M6 0 L47.2 0 C47.2 0 53.2 0 53.2 6 L53.2 33 C53.2 33 53.2 39 47.2 39       L6 39 C6 39 0 39 0 33 L0 6 C0 6 0 0 6 0Z" class="po-mind-topic-shape" transform="matrix(1,0,0,1,0,0)" fill="none" stroke-linecap="round" stroke-width="0" stroke="#fcb52a"></path><g transform="matrix(1,0,0,1,5,6)"><g data-width="43.2" data-height="27" data-offsetx="0" transform="matrix(1,0,0,1,0,0)"><g><text text-anchor="middle" align="top" anchor="middle" font-size="22px" font-weight="400" fill="rgb(13, 13, 13)" style="font-family: Impact;font-size: 22px;font-weight: 400;text-align: center;font-style: normal;max-width: 880px;overflow-wrap: break-word;word-break: break-word;text-size-adjust: 100%;color: rgb(13, 13, 13);"><tspan x="22.5" y="22"><tspan dx="0">DOM</tspan></tspan></text></g></g></g><rect fill="none" width="53.2" height="18" x="0" y="39"></rect></g><g data-renderindex="5" class="po-mind-topic" id="topic-cc264f9e-925a-49b5-8ec9-215fb7f2b0f0" transform="matrix(1,0,0,1,-14.400000000000006,197.5)" opacity="1"><path d="M6 0 L134.6 0 C134.6 0 140.6 0 140.6 6 L140.6 30 C140.6 30 140.6 36 134.6 36       L6 36 C6 36 0 36 0 30 L0 6 C0 6 0 0 6 0Z" class="po-mind-topic-shape-fill" transform="matrix(1,0,0,1,0,0)" fill="#FFFFFF33"></path><path d="M6 0 L134.6 0 C134.6 0 140.6 0 140.6 6 L140.6 30 C140.6 30 140.6 36 134.6 36       L6 36 C6 36 0 36 0 30 L0 6 C0 6 0 0 6 0Z" class="po-mind-topic-shape" transform="matrix(1,0,0,1,0,0)" fill="none" stroke-linecap="round" stroke-width="0" stroke="#FFFFFFFF"></path><g transform="matrix(1,0,0,1,5,6)"><g data-width="130.6" data-height="24" data-offsetx="0" transform="matrix(1,0,0,1,0,0)"><g><text text-anchor="middle" align="top" anchor="middle" font-size="16px" font-weight="400" fill="rgb(0, 0, 0)" style="font-family: 思源宋体;font-size: 16px;font-weight: 400;text-align: center;font-style: normal;max-width: 896px;overflow-wrap: break-word;word-break: break-word;text-size-adjust: 100%;color: rgb(0, 0, 0);"><tspan x="66.5" y="16"><tspan dx="0">页面文档对象模型</tspan></tspan></text></g></g></g></g><g data-renderindex="6" class="po-mind-topic" id="topic-464df00a-6d92-4d47-8cb5-f18e46f11ad8" transform="matrix(1,0,0,1,167.89999999999998,134.5)" opacity="1"><path d="M6 0 L47.2 0 C47.2 0 53.2 0 53.2 6 L53.2 33 C53.2 33 53.2 39 47.2 39       L6 39 C6 39 0 39 0 33 L0 6 C0 6 0 0 6 0Z" class="po-mind-topic-shape-fill" transform="matrix(1,0,0,1,0,0)" fill="none"></path><path d="M6 0 L47.2 0 C47.2 0 53.2 0 53.2 6 L53.2 33 C53.2 33 53.2 39 47.2 39       L6 39 C6 39 0 39 0 33 L0 6 C0 6 0 0 6 0Z" class="po-mind-topic-shape" transform="matrix(1,0,0,1,0,0)" fill="none" stroke-linecap="round" stroke-width="0" stroke="#fcb52a"></path><g transform="matrix(1,0,0,1,5,6)"><g data-width="43.2" data-height="27" data-offsetx="0" transform="matrix(1,0,0,1,0,0)"><g><text text-anchor="middle" align="top" anchor="middle" font-size="22px" font-weight="400" fill="rgb(13, 13, 13)" style="font-family: Impact;font-size: 22px;font-weight: 400;text-align: center;font-style: normal;max-width: 880px;overflow-wrap: break-word;word-break: break-word;text-size-adjust: 100%;color: rgb(13, 13, 13);"><tspan x="22.5" y="22"><tspan dx="0">BOM</tspan></tspan></text></g></g></g><rect fill="none" width="53.2" height="18" x="0" y="39"></rect></g><g data-renderindex="7" class="po-mind-topic" id="topic-7664cd29-c8ad-45d8-bafa-04a47f47b249" transform="matrix(1,0,0,1,132.2,197.5)" opacity="1"><path d="M6 0 L118.6 0 C118.6 0 124.6 0 124.6 6 L124.6 30 C124.6 30 124.6 36 118.6 36       L6 36 C6 36 0 36 0 30 L0 6 C0 6 0 0 6 0Z" class="po-mind-topic-shape-fill" transform="matrix(1,0,0,1,0,0)" fill="#FFFFFF33"></path><path d="M6 0 L118.6 0 C118.6 0 124.6 0 124.6 6 L124.6 30 C124.6 30 124.6 36 118.6 36       L6 36 C6 36 0 36 0 30 L0 6 C0 6 0 0 6 0Z" class="po-mind-topic-shape" transform="matrix(1,0,0,1,0,0)" fill="none" stroke-linecap="round" stroke-width="0" stroke="#FFFFFFFF"></path><g transform="matrix(1,0,0,1,5,6)"><g data-width="114.6" data-height="24" data-offsetx="0" transform="matrix(1,0,0,1,0,0)"><g><text text-anchor="middle" align="top" anchor="middle" font-size="16px" font-weight="400" fill="rgb(0, 0, 0)" style="font-family: 思源宋体;font-size: 16px;font-weight: 400;text-align: center;font-style: normal;max-width: 896px;overflow-wrap: break-word;word-break: break-word;text-size-adjust: 100%;color: rgb(0, 0, 0);"><tspan x="58.5" y="16"><tspan dx="0">浏览器对象模型</tspan></tspan></text></g></g></g></g></g><g class="po-mind-after-node-line-container"></g><g class="po-mind-associative-line-label-container"></g></g><g id="wpsexport-watermark"><defs><pattern patternUnits="userSpaceOnUse" id="wpspattern_mark_0" width="300" height="300"><text x="150" y="100" fill="#0000004d" font-size="18" transform="rotate(-45, 150, 150)" style="dominant-baseline: middle; text-anchor: middle;"></text></pattern></defs><rect fill="url(#wpspattern_mark_0)" x="0" y="0" width="510.792" height="311" id="rect_mark_0" pointer-events="none"></rect></g><style>
    .connection-svg{
        outline: none;
        box-shadow: none;
        -webkit-tap-highlight-color: transparent;
    }
    .connection-line {
        cursor: pointer;
    }

    .connection-line-bg {
        cursor: pointer;
    }

    .node-add-btn,.table-add-btn {
        cursor: pointer;
    }

    .po-richtext-node-wrap ol,
    .area_box ol,
    .po-measureCustomNode ol {
        padding-left: 20px;
        margin: 0;
    }
    .po-richtext-node-wrap ol li,
    .area_box ol li,
    .po-measureCustomNode ol li {
        list-style: decimal;
    }
    .po-richtext-node-wrap ul,
    .area_box ul,
    .po-measureCustomNode ul {
        padding-left: calc(15px + 0.5em);
        list-style: none;
        margin: 0;
    }
    .po-richtext-node-wrap ul li,
    .area_box ul li,
    .po-measureCustomNode ul li {
        list-style: disc;
    }
    .po-richtext-node-wrap p,
    .po-richtext-node-wrap h1,
    .po-richtext-node-wrap h2,
    .po-richtext-node-wrap h3,
    .po-richtext-node-wrap h4,
    .po-richtext-node-wrap h5,
    .po-richtext-node-wrap h6,
    .area_box p,
    .area_box h1,
    .area_box h2,
    .area_box h3,
    .area_box h4,
    .area_box h5,
    .area_box h6,
    .po-measureCustomNode p,
    .po-measureCustomNode h1,
    .po-measureCustomNode h2,
    .po-measureCustomNode h3,
    .po-measureCustomNode h4,
    .po-measureCustomNode h5,
    .po-measureCustomNode h6 {
        margin: 0;
    }
    .po-safari-fixed {
        position: fixed;
    }
    .spacePressed {
        cursor: -webkit-grab !important;
        cursor: grab !important;
        &amp;.moveing {
            cursor: -webkit-grabbing !important;
            cursor: grabbing !important;
        }
        .po-mind-container {
            pointer-events: none;
        }
    }
</style></svg>